<svg width="26" height="32" viewBox="0 0 26 32" fill="none" xmlns="http://www.w3.org/2000/svg">
<path fill-rule="evenodd" clip-rule="evenodd" d="M3.12105 18.8492C3.42403 18.8492 3.68453 18.7201 3.86788 18.4791C4.05123 18.2381 4.10641 17.9525 4.0256 17.6607C3.93868 17.3461 3.85909 17.0296 3.78683 16.7118C3.1191 13.7672 3.1235 10.7281 4.16305 8.02427C4.97433 5.91392 6.40157 4.02524 8.61007 2.56357C8.66305 2.52842 8.68136 2.4603 8.65304 2.40342C8.62472 2.34653 8.55953 2.32016 8.49972 2.34116C6.52047 3.03306 4.9714 4.21201 3.78927 5.6854C2.15548 7.72153 1.24532 10.3072 0.880086 12.9264C0.638875 14.6559 0.633993 16.4027 0.814168 18.0133C0.866903 18.493 1.2734 18.848 1.74508 18.8475L3.12105 18.8492Z" fill="#9FB1CC"/>
<path fill-rule="evenodd" clip-rule="evenodd" d="M5.19482 23.0237C4.7124 23.0237 4.31885 23.417 4.31885 23.8994V23.9612C4.31885 24.4436 4.7124 24.8369 5.19482 24.8369H21.5857C22.0681 24.8369 22.4617 24.4436 22.4617 23.9612V23.8994C22.4617 23.417 22.0681 23.0237 21.5857 23.0237H5.19482Z" fill="#9FB1CC"/>
<path fill-rule="evenodd" clip-rule="evenodd" d="M24.3843 26.7136H2.39917C1.88232 26.7136 1.46094 27.1353 1.46094 27.6521V30.999C1.46094 31.5173 1.8811 31.9375 2.39917 31.9375H24.3843C24.9026 31.9375 25.3228 31.5173 25.3228 30.999V27.6521C25.3228 27.1353 24.9011 26.7136 24.3843 26.7136Z" fill="#9FB1CC"/>
<path fill-rule="evenodd" clip-rule="evenodd" d="M5.90883 8.69208C5.01332 11.0212 5.02065 13.6887 5.61342 16.3019C5.89955 17.5634 6.32558 18.8171 6.85585 20.0187C6.87245 20.0561 6.88612 20.0942 6.8976 20.1323L7.04799 20.5361C7.18764 20.9101 7.52797 21.1464 7.92738 21.1464H18.9144C19.4313 21.1464 19.8529 20.7248 19.8529 20.208V19.4565C19.8529 19.1943 19.7453 18.9575 19.5722 18.7871L15.4103 14.6252C15.1542 14.3693 15.1085 13.9731 15.309 13.673C15.4694 13.4328 15.8651 13.2377 16.1559 13.2758C16.3092 13.2961 16.4603 13.3708 16.5866 13.497L17.6706 14.5812C19.0778 15.9882 21.3949 15.9882 22.8019 14.5812C23.9774 13.4057 24.257 11.7006 23.453 10.2343C22.9347 9.28925 22.2467 8.0893 21.517 6.92255C20.9831 6.06903 20.4174 5.22089 19.8642 4.48407L18.38 0.625183C18.3383 0.47406 18.258 0.331238 18.1391 0.212341C17.7726 -0.154114 17.1786 -0.154114 16.8122 0.212341L15.3749 1.64935C15.246 1.83881 15.048 1.98139 14.807 2.03558C13.6019 2.30878 12.5241 2.66327 11.5639 3.0871C8.56899 4.40888 6.78969 6.40082 5.90883 8.69208ZM16.8393 6.68866H16.871C17.3893 6.68866 17.8095 7.10883 17.8095 7.62714C17.8095 8.14545 17.3893 8.56562 16.871 8.56562H16.8393C16.3209 8.56562 15.9008 8.14545 15.9008 7.62714C15.9008 7.10883 16.3209 6.68866 16.8393 6.68866Z" fill="#9FB1CC"/>
</svg>
