<svg width="32" height="30" viewBox="0 0 32 30" fill="none" xmlns="http://www.w3.org/2000/svg">
<path fill-rule="evenodd" clip-rule="evenodd" d="M7.07749 22.0002H0.922513C0.413184 22.0002 0 22.5483 0 23.2246V28.7756C0 29.4519 0.413184 30.0002 0.922513 30.0002H7.07749C7.58561 30.0002 8 29.45 8 28.7756V23.2246C8 22.5502 7.58561 22.0002 7.07749 22.0002Z" fill="#9FB1CC"/>
<path fill-rule="evenodd" clip-rule="evenodd" d="M17.0768 14.0002H10.9232C10.4134 14.0002 10 14.563 10 15.2569V28.7435C10 29.4375 10.4134 30.0002 10.9232 30.0002H17.0768C17.5854 30.0002 18 29.4356 18 28.7435V15.2569C18 14.5649 17.5852 14.0002 17.0768 14.0002Z" fill="#9FB1CC"/>
<path fill-rule="evenodd" clip-rule="evenodd" d="M31.0623 2.00024H20.9377C20.4197 2.00024 20 2.57195 20 3.27669V28.7235C20 29.4285 20.4197 30.0002 20.9377 30.0002H31.0623C31.58 30.0002 32 29.4285 32 28.7235V3.27669C32 2.57162 31.58 2.00024 31.0623 2.00024Z" fill="#9FB1CC"/>
</svg>
