<svg width="32" height="32" viewBox="0 0 32 32" fill="none" xmlns="http://www.w3.org/2000/svg">
<path d="M12.0886 12.2205C13.2918 12.8391 14.6467 13.166 16.0073 13.166C17.3679 13.166 18.7229 12.8391 19.9258 12.2205C20.2378 12.0601 20.4341 11.7388 20.4346 11.3882L20.4375 9.34204C20.4382 8.7644 20.2107 8.21777 19.7966 7.80322C19.3818 7.3877 18.8096 7.14966 18.2268 7.14966C16.7405 7.14966 15.2544 7.14771 13.7683 7.14771C13.1831 7.14771 12.6326 7.37646 12.218 7.7915C11.804 8.20605 11.5762 8.7561 11.5772 9.34033L11.5798 11.3882C11.5803 11.7388 11.7769 12.0601 12.0886 12.2205Z" fill="#9FB1CC"/>
<path d="M16.0063 6.47168C17.7905 6.47168 19.2422 5.02002 19.2422 3.23584C19.2422 1.45166 17.7905 0 16.0063 0C14.2222 0 12.7705 1.45166 12.7705 3.23584C12.7705 5.02002 14.2222 6.47168 16.0063 6.47168Z" fill="#9FB1CC"/>
<path d="M6.64966 25.9832C5.16333 25.9832 3.67725 25.9814 2.19117 25.9814C1.60596 25.9814 1.05542 26.21 0.640872 26.6252C0.22681 27.0398 -0.000973435 27.5898 3.12708e-06 28.1738L0.00293281 30.2217C0.0034211 30.5725 0.19971 30.8936 0.511722 31.054C1.7146 31.6728 3.06958 31.9998 4.43018 31.9998C5.79077 31.9998 7.146 31.6728 8.34888 31.054C8.66065 30.8936 8.85718 30.5725 8.85767 30.2217L8.86035 28.1758C8.86109 27.5979 8.63355 27.0513 8.21973 26.6367C7.80493 26.2214 7.23267 25.9832 6.64966 25.9832Z" fill="#9FB1CC"/>
<path d="M4.42896 25.3054C6.21338 25.3054 7.66479 23.854 7.66479 22.0696C7.66479 20.2854 6.21313 18.834 4.42896 18.834C2.64478 18.834 1.19336 20.2854 1.19336 22.0696C1.19336 23.854 2.64478 25.3054 4.42896 25.3054Z" fill="#9FB1CC"/>
<path d="M31.3591 26.6367C30.9443 26.2214 30.3721 25.9832 29.7893 25.9832C28.303 25.9832 26.8169 25.9814 25.3308 25.9814C24.7456 25.9814 24.1951 26.21 23.7805 26.6252C23.3665 27.0398 23.1387 27.5896 23.1397 28.1738L23.1423 30.2217C23.1428 30.5725 23.3391 30.8936 23.6511 31.054C24.8543 31.6726 26.2092 31.9998 27.5698 31.9998C28.9304 31.9998 30.2854 31.6726 31.4883 31.054C31.8003 30.8936 31.9966 30.5723 31.9971 30.2217L32 28.1755C32.0007 27.5979 31.7732 27.0513 31.3591 26.6367Z" fill="#9FB1CC"/>
<path d="M27.5688 25.3054C29.3533 25.3054 30.8047 23.854 30.8047 22.0696C30.8047 20.2854 29.353 18.834 27.5688 18.834C25.7847 18.834 24.333 20.2854 24.333 22.0696C24.333 23.854 25.7847 25.3054 27.5688 25.3054Z" fill="#9FB1CC"/>
<path d="M20.3711 21.9312L16.9448 19.9531V16C16.9448 15.4822 16.5251 15.0625 16.0073 15.0625C15.4895 15.0625 15.0698 15.4822 15.0698 16V19.9543L11.6418 21.9336C11.1933 22.1924 11.0398 22.7659 11.2986 23.2141C11.4721 23.5149 11.7873 23.6831 12.1113 23.6831C12.2705 23.6831 12.4316 23.6426 12.5793 23.5574L16.0085 21.5774L19.4336 23.5552C19.5813 23.6404 19.7424 23.6809 19.9016 23.6809C20.2256 23.6809 20.5405 23.5127 20.7143 23.2119C20.9731 22.7634 20.8196 22.1902 20.3711 21.9312Z" fill="#9FB1CC"/>
</svg>
