<svg width="32" height="32" viewBox="0 0 32 32" fill="none" xmlns="http://www.w3.org/2000/svg">
<path fill-rule="evenodd" clip-rule="evenodd" d="M23.6262 12.3342C24.7 14.1077 25.3179 16.1877 25.3179 18.4121C25.3179 21.6575 24.0024 24.5957 21.8757 26.7224C19.749 28.8491 16.8108 30.1645 13.5654 30.1645C10.3201 30.1645 7.38184 28.8491 5.25513 26.7224C3.12842 24.5957 1.81299 21.6575 1.81299 18.4121C1.81299 15.1667 3.12842 12.2285 5.25513 10.1018C7.38184 7.9751 10.3201 6.65967 13.5654 6.65967C15.7983 6.65967 17.8857 7.28223 19.6633 8.36328L21.0273 7.00684C18.8835 5.60156 16.3198 4.78418 13.5654 4.78418C9.80225 4.78418 6.39527 6.30957 3.9292 8.77588C1.46289 11.2419 -0.0625 14.6489 -0.0625 18.4121C-0.0625 22.1753 1.46289 25.5823 3.9292 28.0483C6.39527 30.5146 9.80225 32.04 13.5654 32.04C17.3286 32.04 20.7356 30.5146 23.2017 28.0483C25.668 25.5823 27.1934 22.1753 27.1934 18.4121C27.1934 15.6697 26.3831 13.1167 24.9893 10.979L23.6262 12.3342Z" fill="#9FB1CC"/>
<path fill-rule="evenodd" clip-rule="evenodd" d="M18.3081 9.70996C16.8992 8.94019 15.283 8.50269 13.5645 8.50269C10.8281 8.50269 8.35108 9.61182 6.55786 11.405C4.76465 13.1982 3.65527 15.6755 3.65527 18.4116C3.65527 21.148 4.76465 23.625 6.55786 25.4182C8.35108 27.2114 10.8281 28.3208 13.5645 28.3208C16.3005 28.3208 18.7778 27.2114 20.571 25.4182C22.3643 23.625 23.4734 21.148 23.4734 18.4116C23.4734 16.6978 23.0383 15.0855 22.2725 13.6794L20.8728 15.0713C21.3384 16.0886 21.5981 17.2197 21.5981 18.4116C21.5981 20.6301 20.699 22.6387 19.2451 24.0923C17.7915 25.5461 15.783 26.4453 13.5645 26.4453C11.3459 26.4453 9.3374 25.5461 7.88379 24.0923C6.42993 22.6387 5.53076 20.6301 5.53076 18.4116C5.53076 16.1931 6.42993 14.1846 7.88379 12.731C9.3374 11.2771 11.3459 10.3779 13.5645 10.3779C14.7568 10.3779 15.8887 10.6379 16.9063 11.104L18.3081 9.70996Z" fill="#9FB1CC"/>
<path fill-rule="evenodd" clip-rule="evenodd" d="M13.5659 14.0989C13.6724 14.0984 13.7791 14.1021 13.8853 14.1099L15.4795 12.5244C14.8767 12.3286 14.2336 12.2227 13.5659 12.2227C11.8569 12.2227 10.3098 12.9155 9.1897 14.0356C8.06982 15.1555 7.37695 16.7026 7.37695 18.4116C7.37695 20.1204 8.06982 21.6677 9.18994 22.7876C10.3098 23.9077 11.8572 24.6003 13.5659 24.6003C15.2749 24.6003 16.822 23.9077 17.9421 22.7876C19.062 21.6677 19.7546 20.1206 19.7546 18.4116C19.7546 17.74 19.6477 17.0933 19.4497 16.4878L17.8655 18.0635C17.8745 18.1785 17.8794 18.2944 17.8794 18.4116C17.8794 19.6028 17.3965 20.6812 16.616 21.4617C15.8355 22.2422 14.7571 22.7251 13.5659 22.7251C12.3745 22.7251 11.2961 22.2422 10.5156 21.4617C9.73535 20.6812 9.25244 19.6028 9.25244 18.4116C9.25244 17.2205 9.73535 16.1421 10.5159 15.3616C11.312 14.5652 12.4395 14.1038 13.5659 14.0989Z" fill="#9FB1CC"/>
<path fill-rule="evenodd" clip-rule="evenodd" d="M31.663 3.89628C31.5017 3.7349 31.2961 3.64457 31.0851 3.62552L28.873 3.26346L28.3769 0.839634C28.3456 0.656284 28.2595 0.480259 28.1184 0.338413C27.7541 -0.0277982 27.1621 -0.029263 26.7961 0.334751L24.0295 3.08817C23.8342 3.28251 23.7426 3.54178 23.7551 3.79691L23.7687 6.91752L12.8234 17.8028C12.4575 18.167 12.4558 18.7588 12.8198 19.125C13.184 19.4912 13.7761 19.493 14.142 19.1287L25.0908 8.24003L28.1679 8.24344C28.4345 8.26688 28.7092 8.17655 28.9133 7.97269L31.663 5.2222C32.0292 4.85599 32.0292 4.26249 31.663 3.89628Z" fill="#9FB1CC"/>
</svg>
