<svg width="32" height="26" viewBox="0 0 32 26" fill="none" xmlns="http://www.w3.org/2000/svg">
<path fill-rule="evenodd" clip-rule="evenodd" d="M1.04565 9.66797C0.400391 10.3132 0 11.2039 0 12.1846C0 13.1653 0.400391 14.0562 1.04565 14.7014C1.69092 15.3467 2.58179 15.7471 3.5625 15.7471H3.6875V8.62207H3.5625C2.58179 8.62207 1.69092 9.02271 1.04565 9.66797Z" fill="#9FB1CC"/>
<path fill-rule="evenodd" clip-rule="evenodd" d="M13.5 6.87207H6.5C5.98218 6.87207 5.5625 7.29199 5.5625 7.80957V16.5596C5.5625 17.0774 5.98218 17.4971 6.5 17.4971H13.5V6.87207Z" fill="#9FB1CC"/>
<path fill-rule="evenodd" clip-rule="evenodd" d="M31.9976 1.37254C31.9978 1.16673 31.9302 0.959454 31.7913 0.786603C31.4678 0.384259 30.8789 0.320294 30.4766 0.643781C29.1028 1.75438 27.7539 2.7639 26.4126 3.62156C25.0815 4.47264 23.7446 5.18455 22.3801 5.71165C21.0928 6.20872 19.7722 6.52244 18.4414 6.70091C17.4216 6.83738 16.396 6.89476 15.375 6.89378V17.4741C16.4016 17.4692 17.4304 17.5188 18.4504 17.6482C19.7756 17.8166 21.0928 18.1211 22.3801 18.6181C23.7446 19.1452 25.0813 19.8572 26.4126 20.7082C27.7368 21.5547 29.0681 22.5493 30.4236 23.643C30.5908 23.7991 30.8157 23.8945 31.0625 23.8945C31.5803 23.8945 32 23.4748 32 22.957V1.37254H31.9976Z" fill="#9FB1CC"/>
<path fill-rule="evenodd" clip-rule="evenodd" d="M14.096 19.3721H7.36914L8.45703 23.4319C8.65747 24.1797 9.14404 24.7769 9.76709 25.1367C10.3916 25.4973 11.1523 25.6206 11.8997 25.4204L12.7446 25.1938C13.4927 24.9934 14.0898 24.5068 14.4497 23.8838L14.448 23.8828L14.4497 23.8801C14.8098 23.2563 14.9331 22.4968 14.7334 21.7512L14.096 19.3721Z" fill="#9FB1CC"/>
</svg>
